<svg xmlns="http://www.w3.org/2000/svg" width="160" height="160" viewBox="0 0 160 160" role="img" aria-labelledby="title desc">
  <title id="title">PrecoMap</title>
  <desc id="desc">Mapa de preço com pulso analítico</desc>
  <defs>
    <linearGradient id="bg" x1="25" y1="12" x2="137" y2="146" gradientUnits="userSpaceOnUse">
      <stop stop-color="#22d3ee"/>
      <stop offset=".52" stop-color="#2563eb"/>
      <stop offset="1" stop-color="#14b8a6"/>
    </linearGradient>
    <linearGradient id="line" x1="32" y1="91" x2="130" y2="54" gradientUnits="userSpaceOnUse">
      <stop stop-color="#ecfeff"/>
      <stop offset=".48" stop-color="#67e8f9"/>
      <stop offset="1" stop-color="#a7f3d0"/>
    </linearGradient>
    <filter id="shadow" x="-20%" y="-20%" width="140%" height="140%">
      <feDropShadow dx="0" dy="16" stdDeviation="14" flood-color="#020617" flood-opacity=".32"/>
    </filter>
  </defs>
  <rect x="18" y="18" width="124" height="124" rx="30" fill="url(#bg)" filter="url(#shadow)"/>
  <path d="M47 100h66c14 0 25-11 25-25S127 50 113 50H92" fill="none" stroke="#dffcff" stroke-width="8" stroke-linecap="round" opacity=".28"/>
  <path d="M34 92h19l10-30 18 55 16-43 10 18h19" fill="none" stroke="url(#line)" stroke-width="9" stroke-linecap="round" stroke-linejoin="round"/>
  <circle cx="112" cy="67" r="13" fill="#022c22" opacity=".22"/>
  <circle cx="112" cy="67" r="8" fill="#ecfeff"/>
  <path d="M112 39c17 0 31 13 31 30 0 22-31 50-31 50S81 91 81 69c0-17 14-30 31-30Zm0 40a10 10 0 1 0 0-20 10 10 0 0 0 0 20Z" fill="#0f172a" opacity=".18"/>
</svg>
